<svg xmlns="http://www.w3.org/2000/svg" xmlns:xlink="http://www.w3.org/1999/xlink" width="961" height="644" viewBox="0 0 961 644"><filter filterUnits="objectBoundingBox" x="0" y="0" width="100" height="100" id="e"><feImage width="482" height="296" xlink:href="#a"/><feComposite in="grImage1" in2="SourceAlpha" operator="in" result="grOverlay1"/><feBlend in="grOverlay1" in2="SourceGraphic" result="gradientOverlay1"/></filter><filter filterUnits="objectBoundingBox" x="0" y="0" width="100" height="100" id="f"><feImage x="479" y="288" width="482" height="356" xlink:href="#b"/><feComposite in="grImage1" in2="SourceAlpha" operator="in" result="grOverlay1"/><feBlend in="grOverlay1" in2="SourceGraphic" result="gradientOverlay1"/></filter><linearGradient id="c" x1="50%" y1="100%" x2="50%" y2="0%"><stop offset="0%" stop-color="#F14741"/><stop offset="100%" stop-color="#FB8B2D"/></linearGradient><linearGradient id="d" x1="50%" y1="100%" x2="50%" y2="0%"><stop offset="0%" stop-color="#FB8B2D"/><stop offset="100%" stop-color="#F14741"/></linearGradient><defs><path id="a" fill="url(#c)" d="M0 0h482v296H0z"/><path id="b" fill="url(#d)" d="M0 0h482v356H0z"/></defs><path d="M478 2c0-1.1.9-2 2-2s2 .9 2 2v.11c0 1.1-.9 2-2 2s-2-.9-2-2V2m0 8.11c0-1.1.9-2 2-2s2 .9 2 2v.11c0 1.1-.9 2-2 2s-2-.9-2-2v-.11m0 8.11c0-1.1.9-2 2-2s2 .9 2 2v.11c0 1.1-.9 2-2 2s-2-.9-2-2v-.11m0 8.11c0-1.1.9-2 2-2s2 .9 2 2v.11c0 1.1-.9 2-2 2s-2-.9-2-2v-.11m1.56 1.67c1.1 0 2 .9 2 2s-.9 2-2 2h-.11c-1.1 0-2-.9-2-2s.9-2 2-2h.11m-8.11 0c1.1 0 2 .9 2 2s-.9 2-2 2h-.11c-1.1 0-2-.9-2-2s.9-2 2-2h.11m-8.11 0c1.1 0 2 .9 2 2s-.9 2-2 2h-.11c-1.1 0-2-.9-2-2s.9-2 2-2h.11m-8.11 0c1.1 0 2 .9 2 2s-.9 2-2 2h-.11c-1.1 0-2-.9-2-2s.9-2 2-2h.11m-8.11 0c1.1 0 2 .9 2 2s-.9 2-2 2h-.11c-1.1 0-2-.9-2-2s.9-2 2-2h.11m-8.11 0c1.1 0 2 .9 2 2s-.9 2-2 2h-.11c-1.1 0-2-.9-2-2s.9-2 2-2h.11m-8.11 0c1.1 0 2 .9 2 2s-.9 2-2 2h-.11c-1.1 0-2-.9-2-2s.9-2 2-2h.11m-8.11 0c1.1 0 2 .9 2 2s-.9 2-2 2h-.11c-1.1 0-2-.9-2-2s.9-2 2-2h.11m-8.11 0c1.1 0 2 .9 2 2s-.9 2-2 2h-.11c-1.1 0-2-.9-2-2s.9-2 2-2h.11m-8.11 0c1.1 0 2 .9 2 2s-.9 2-2 2h-.11c-1.1 0-2-.9-2-2s.9-2 2-2h.11m-8.11 0c1.1 0 2 .9 2 2s-.9 2-2 2h-.11c-1.1 0-2-.9-2-2s.9-2 2-2h.11m-8.11 0c1.1 0 2 .9 2 2s-.9 2-2 2h-.11c-1.1 0-2-.9-2-2s.9-2 2-2h.11m-8.11 0c1.1 0 2 .9 2 2s-.9 2-2 2h-.11c-1.1 0-2-.9-2-2s.9-2 2-2h.11m-8.11 0c1.1 0 2 .9 2 2s-.9 2-2 2h-.11c-1.1 0-2-.9-2-2s.9-2 2-2h.11m-8.11 0c1.1 0 2 .9 2 2s-.9 2-2 2h-.11c-1.1 0-2-.9-2-2s.9-2 2-2h.11m-8.11 0c1.1 0 2 .9 2 2s-.9 2-2 2h-.11c-1.1 0-2-.9-2-2s.9-2 2-2h.11m-8.11 0c1.1 0 2 .9 2 2s-.9 2-2 2h-.11c-1.1 0-2-.9-2-2s.9-2 2-2h.11m-8.11 0c1.1 0 2 .9 2 2s-.9 2-2 2h-.11c-1.1 0-2-.9-2-2s.9-2 2-2h.11m-8.11 0c1.1 0 2 .9 2 2s-.9 2-2 2h-.11c-1.1 0-2-.9-2-2s.9-2 2-2h.11m-8.11 0c1.1 0 2 .9 2 2s-.9 2-2 2h-.11c-1.1 0-2-.9-2-2s.9-2 2-2h.11m-8.11 0c1.1 0 2 .9 2 2s-.9 2-2 2h-.11c-1.1 0-2-.9-2-2s.9-2 2-2h.11m-8.11 0c1.1 0 2 .9 2 2s-.9 2-2 2h-.11c-1.1 0-2-.9-2-2s.9-2 2-2h.11m-8.11 0c1.1 0 2 .9 2 2s-.9 2-2 2h-.11c-1.1 0-2-.9-2-2s.9-2 2-2h.11m-8.11 0c1.1 0 2 .9 2 2s-.9 2-2 2h-.11c-1.1 0-2-.9-2-2s.9-2 2-2h.11m-8.11 0c1.1 0 2 .9 2 2s-.9 2-2 2h-.11c-1.1 0-2-.9-2-2s.9-2 2-2h.11m-8.11 0c1.1 0 2 .9 2 2s-.9 2-2 2h-.11c-1.1 0-2-.9-2-2s.9-2 2-2h.11m-8.11 0c1.1 0 2 .9 2 2s-.9 2-2 2h-.11c-1.1 0-2-.9-2-2s.9-2 2-2h.11m-8.11 0c1.1 0 2 .9 2 2s-.9 2-2 2h-.11c-1.1 0-2-.9-2-2s.9-2 2-2h.11m-8.11 0c1.1 0 2 .9 2 2s-.9 2-2 2h-.11c-1.1 0-2-.9-2-2s.9-2 2-2h.11m-8.11 0c1.1 0 2 .9 2 2s-.9 2-2 2h-.11c-1.1 0-2-.9-2-2s.9-2 2-2h.11m-8.11 0c1.1 0 2 .9 2 2s-.9 2-2 2h-.11c-1.1 0-2-.9-2-2s.9-2 2-2h.11m-8.11 0c1.1 0 2 .9 2 2s-.9 2-2 2h-.11c-1.1 0-2-.9-2-2s.9-2 2-2h.11m-8.11 0c1.1 0 2 .9 2 2s-.9 2-2 2h-.11c-1.1 0-2-.9-2-2s.9-2 2-2h.11m-8.11 0c1.1 0 2 .9 2 2s-.9 2-2 2h-.11c-1.1 0-2-.9-2-2s.9-2 2-2h.11m-8.11 0c1.1 0 2 .9 2 2s-.9 2-2 2h-.11c-1.1 0-2-.9-2-2s.9-2 2-2h.11m-8.11 0c1.1 0 2 .9 2 2s-.9 2-2 2h-.11c-1.1 0-2-.9-2-2s.9-2 2-2h.11m-8.11 0c1.1 0 2 .9 2 2s-.9 2-2 2h-.11c-1.1 0-2-.9-2-2s.9-2 2-2h.11m-8.11 0c1.1 0 2 .9 2 2s-.9 2-2 2h-.11c-1.1 0-2-.9-2-2s.9-2 2-2h.11m-8.11 0c1.1 0 2 .9 2 2s-.9 2-2 2h-.11c-1.1 0-2-.9-2-2s.9-2 2-2h.11m-8.11 0c1.1 0 2 .9 2 2s-.9 2-2 2h-.11c-1.1 0-2-.9-2-2s.9-2 2-2h.11m-8.11 0c1.1 0 2 .9 2 2s-.9 2-2 2h-.11c-1.1 0-2-.9-2-2s.9-2 2-2h.11m-8.11 0c1.1 0 2 .9 2 2s-.9 2-2 2h-.11c-1.1 0-2-.9-2-2s.9-2 2-2h.11m-8.11 0c1.1 0 2 .9 2 2s-.9 2-2 2h-.11c-1.1 0-2-.9-2-2s.9-2 2-2h.11m-8.11 0c1.1 0 2 .9 2 2s-.9 2-2 2h-.11c-1.1 0-2-.9-2-2s.9-2 2-2h.11m-8.11 0c1.1 0 2 .9 2 2s-.9 2-2 2h-.11c-1.1 0-2-.9-2-2s.9-2 2-2h.11m-8.11 0c1.1 0 2 .9 2 2s-.9 2-2 2h-.11c-1.1 0-2-.9-2-2s.9-2 2-2h.11m-8.11 0c1.1 0 2 .9 2 2s-.9 2-2 2h-.11c-1.1 0-2-.9-2-2s.9-2 2-2h.11m-8.11 0c1.1 0 2 .9 2 2s-.9 2-2 2h-.11c-1.1 0-2-.9-2-2s.9-2 2-2h.11m-8.11 0c1.1 0 2 .9 2 2s-.9 2-2 2h-.11c-1.1 0-2-.9-2-2s.9-2 2-2h.11m-8.11 0c1.1 0 2 .9 2 2s-.9 2-2 2h-.11c-1.1 0-2-.9-2-2s.9-2 2-2h.11m-8.11 0c1.1 0 2 .9 2 2s-.9 2-2 2h-.11c-1.1 0-2-.9-2-2s.9-2 2-2h.11m-8.11 0c1.1 0 2 .9 2 2s-.9 2-2 2h-.11c-1.1 0-2-.9-2-2s.9-2 2-2h.11m-8.11 0c1.1 0 2 .9 2 2s-.9 2-2 2h-.11c-1.1 0-2-.9-2-2s.9-2 2-2h.11m-8.11 0c1.1 0 2 .9 2 2s-.9 2-2 2h-.11c-1.1 0-2-.9-2-2s.9-2 2-2h.11m-8.11 0c1.1 0 2 .9 2 2s-.9 2-2 2h-.11c-1.1 0-2-.9-2-2s.9-2 2-2h.11m-8.11 0c1.1 0 2 .9 2 2s-.9 2-2 2h-.11c-1.1 0-2-.9-2-2s.9-2 2-2h.11m-8.11 0c1.1 0 2 .9 2 2s-.9 2-2 2h-.11c-1.1 0-2-.9-2-2s.9-2 2-2h.11m-8.11 0c1.1 0 2 .9 2 2s-.9 2-2 2h-.11c-1.1 0-2-.9-2-2s.9-2 2-2h.11m-8.11 0c1.1 0 2 .9 2 2s-.9 2-2 2h-.11c-1.1 0-2-.9-2-2s.9-2 2-2h.11M0 34.93c0-1.1.9-2 2-2s2 .9 2 2v.11c0 1.1-.9 2-2 2s-2-.9-2-2v-.11m0 8.11c0-1.1.9-2 2-2s2 .9 2 2v.11c0 1.1-.9 2-2 2s-2-.9-2-2v-.11m0 8.11c0-1.1.9-2 2-2s2 .9 2 2v.11c0 1.1-.9 2-2 2s-2-.9-2-2v-.11m0 8.11c0-1.1.9-2 2-2s2 .9 2 2v.11c0 1.1-.9 2-2 2s-2-.9-2-2v-.11m0 8.11c0-1.1.9-2 2-2s2 .9 2 2v.11c0 1.1-.9 2-2 2s-2-.9-2-2v-.11m0 8.11c0-1.1.9-2 2-2s2 .9 2 2v.11c0 1.1-.9 2-2 2s-2-.9-2-2v-.11m0 8.11c0-1.1.9-2 2-2s2 .9 2 2v.11c0 1.1-.9 2-2 2s-2-.9-2-2v-.11m0 8.11c0-1.1.9-2 2-2s2 .9 2 2v.11c0 1.1-.9 2-2 2s-2-.9-2-2v-.11m0 8.11c0-1.1.9-2 2-2s2 .9 2 2v.11c0 1.1-.9 2-2 2s-2-.9-2-2v-.11m0 8.11c0-1.1.9-2 2-2s2 .9 2 2v.11c0 1.1-.9 2-2 2s-2-.9-2-2v-.11m0 8.11c0-1.1.9-2 2-2s2 .9 2 2v.11c0 1.1-.9 2-2 2s-2-.9-2-2v-.11m0 8.11c0-1.1.9-2 2-2s2 .9 2 2v.11c0 1.1-.9 2-2 2s-2-.9-2-2v-.11m0 8.11c0-1.1.9-2 2-2s2 .9 2 2v.11c0 1.1-.9 2-2 2s-2-.9-2-2v-.11m0 8.11c0-1.1.9-2 2-2s2 .9 2 2v.11c0 1.1-.9 2-2 2s-2-.9-2-2v-.11m0 8.11c0-1.1.9-2 2-2s2 .9 2 2v.11c0 1.1-.9 2-2 2s-2-.9-2-2v-.11m0 8.11c0-1.1.9-2 2-2s2 .9 2 2v.11c0 1.1-.9 2-2 2s-2-.9-2-2v-.11m0 8.11c0-1.1.9-2 2-2s2 .9 2 2v.11c0 1.1-.9 2-2 2s-2-.9-2-2v-.11m0 8.11c0-1.1.9-2 2-2s2 .9 2 2v.11c0 1.1-.9 2-2 2s-2-.9-2-2v-.11m0 8.11c0-1.1.9-2 2-2s2 .9 2 2v.11c0 1.1-.9 2-2 2s-2-.9-2-2v-.11m0 8.11c0-1.1.9-2 2-2s2 .9 2 2v.11c0 1.1-.9 2-2 2s-2-.9-2-2v-.11m0 8.11c0-1.1.9-2 2-2s2 .9 2 2v.11c0 1.1-.9 2-2 2s-2-.9-2-2v-.11m0 8.11c0-1.1.9-2 2-2s2 .9 2 2v.11c0 1.1-.9 2-2 2s-2-.9-2-2v-.11m0 8.11c0-1.1.9-2 2-2s2 .9 2 2v.11c0 1.1-.9 2-2 2s-2-.9-2-2v-.11m0 8.11c0-1.1.9-2 2-2s2 .9 2 2v.11c0 1.1-.9 2-2 2s-2-.9-2-2v-.11m0 8.11c0-1.1.9-2 2-2s2 .9 2 2v.11c0 1.1-.9 2-2 2s-2-.9-2-2v-.11m0 8.11c0-1.1.9-2 2-2s2 .9 2 2v.11c0 1.1-.9 2-2 2s-2-.9-2-2v-.11m0 8.11c0-1.1.9-2 2-2s2 .9 2 2v.11c0 1.1-.9 2-2 2s-2-.9-2-2v-.11m0 8.11c0-1.1.9-2 2-2s2 .9 2 2v.11c0 1.1-.9 2-2 2s-2-.9-2-2v-.11m0 8.11c0-1.1.9-2 2-2s2 .9 2 2v.11c0 1.1-.9 2-2 2s-2-.9-2-2v-.11m0 8.11c0-1.1.9-2 2-2s2 .9 2 2v.11c0 1.1-.9 2-2 2s-2-.9-2-2v-.11m0 8.11c0-1.1.9-2 2-2s2 .9 2 2v.11c0 1.1-.9 2-2 2s-2-.9-2-2v-.11m0 8.11c0-1.1.9-2 2-2s2 .9 2 2v.11c0 1.1-.9 2-2 2s-2-.9-2-2v-.11M6.45 296c-1.1 0-2-.9-2-2s.9-2 2-2h.11c1.1 0 2 .9 2 2s-.9 2-2 2h-.11m8.11 0c-1.1 0-2-.9-2-2s.9-2 2-2h.11c1.1 0 2 .9 2 2s-.9 2-2 2h-.11m8.11 0c-1.1 0-2-.9-2-2s.9-2 2-2h.11c1.1 0 2 .9 2 2s-.9 2-2 2h-.11m8.11 0c-1.1 0-2-.9-2-2s.9-2 2-2h.11c1.1 0 2 .9 2 2s-.9 2-2 2h-.11m8.11 0c-1.1 0-2-.9-2-2s.9-2 2-2H39c1.1 0 2 .9 2 2s-.9 2-2 2h-.11m8.11 0c-1.1 0-2-.9-2-2s.9-2 2-2h.11c1.1 0 2 .9 2 2s-.9 2-2 2H47m8.11 0c-1.1 0-2-.9-2-2s.9-2 2-2h.11c1.1 0 2 .9 2 2s-.9 2-2 2h-.11m8.11 0c-1.1 0-2-.9-2-2s.9-2 2-2h.11c1.1 0 2 .9 2 2s-.9 2-2 2h-.11m8.11 0c-1.1 0-2-.9-2-2s.9-2 2-2h.11c1.1 0 2 .9 2 2s-.9 2-2 2h-.11m8.11 0c-1.1 0-2-.9-2-2s.9-2 2-2h.11c1.1 0 2 .9 2 2s-.9 2-2 2h-.11" fill="#FB8B2D" filter="url(#e)"/><path d="M483 642c0 1.1-.9 2-2 2s-2-.9-2-2v-.11c0-1.1.9-2 2-2s2 .9 2 2v.11m0-8.11c0 1.1-.9 2-2 2s-2-.9-2-2v-.11c0-1.1.9-2 2-2s2 .9 2 2v.11m0-8.11c0 1.1-.9 2-2 2s-2-.9-2-2v-.11c0-1.1.9-2 2-2s2 .9 2 2v.11m0-8.11c0 1.1-.9 2-2 2s-2-.9-2-2v-.11c0-1.1.9-2 2-2s2 .9 2 2v.11m0-8.11c0 1.1-.9 2-2 2s-2-.9-2-2v-.11c0-1.1.9-2 2-2s2 .9 2 2v.11m0-8.11c0 1.1-.9 2-2 2s-2-.9-2-2v-.11c0-1.1.9-2 2-2s2 .9 2 2v.11m0-8.11c0 1.1-.9 2-2 2s-2-.9-2-2v-.11c0-1.1.9-2 2-2s2 .9 2 2v.11m0-8.11c0 1.1-.9 2-2 2s-2-.9-2-2v-.11c0-1.1.9-2 2-2s2 .9 2 2v.11m0-8.11c0 1.1-.9 2-2 2s-2-.9-2-2v-.11c0-1.1.9-2 2-2s2 .9 2 2v.11m0-8.11c0 1.1-.9 2-2 2s-2-.9-2-2v-.11c0-1.1.9-2 2-2s2 .9 2 2v.11m0-8.11c0 1.1-.9 2-2 2s-2-.9-2-2v-.11c0-1.1.9-2 2-2s2 .9 2 2v.11m0-8.11c0 1.1-.9 2-2 2s-2-.9-2-2v-.11c0-1.1.9-2 2-2s2 .9 2 2v.11m3.32 3.21c-1.1 0-2-.9-2-2s.9-2 2-2h.11c1.1 0 2 .9 2 2s-.9 2-2 2h-.11m8.11 0c-1.1 0-2-.9-2-2s.9-2 2-2h.11c1.1 0 2 .9 2 2s-.9 2-2 2h-.11m8.11 0c-1.1 0-2-.9-2-2s.9-2 2-2h.11c1.1 0 2 .9 2 2s-.9 2-2 2h-.11m8.11 0c-1.1 0-2-.9-2-2s.9-2 2-2h.11c1.1 0 2 .9 2 2s-.9 2-2 2h-.11m8.11 0c-1.1 0-2-.9-2-2s.9-2 2-2h.11c1.1 0 2 .9 2 2s-.9 2-2 2h-.11m8.11 0c-1.1 0-2-.9-2-2s.9-2 2-2h.11c1.1 0 2 .9 2 2s-.9 2-2 2h-.11m8.11 0c-1.1 0-2-.9-2-2s.9-2 2-2h.11c1.1 0 2 .9 2 2s-.9 2-2 2h-.11m8.11 0c-1.1 0-2-.9-2-2s.9-2 2-2h.11c1.1 0 2 .9 2 2s-.9 2-2 2h-.11m8.11 0c-1.1 0-2-.9-2-2s.9-2 2-2h.11c1.1 0 2 .9 2 2s-.9 2-2 2h-.11m8.11 0c-1.1 0-2-.9-2-2s.9-2 2-2h.11c1.1 0 2 .9 2 2s-.9 2-2 2h-.11m8.11 0c-1.1 0-2-.9-2-2s.9-2 2-2h.11c1.1 0 2 .9 2 2s-.9 2-2 2h-.11m8.11 0c-1.1 0-2-.9-2-2s.9-2 2-2h.11c1.1 0 2 .9 2 2s-.9 2-2 2h-.11m8.11 0c-1.1 0-2-.9-2-2s.9-2 2-2h.11c1.1 0 2 .9 2 2s-.9 2-2 2h-.11m8.11 0c-1.1 0-2-.9-2-2s.9-2 2-2h.11c1.1 0 2 .9 2 2s-.9 2-2 2h-.11m8.11 0c-1.1 0-2-.9-2-2s.9-2 2-2h.11c1.1 0 2 .9 2 2s-.9 2-2 2h-.11m8.11 0c-1.1 0-2-.9-2-2s.9-2 2-2h.11c1.1 0 2 .9 2 2s-.9 2-2 2h-.11m8.11 0c-1.1 0-2-.9-2-2s.9-2 2-2h.11c1.1 0 2 .9 2 2s-.9 2-2 2h-.11m8.11 0c-1.1 0-2-.9-2-2s.9-2 2-2h.11c1.1 0 2 .9 2 2s-.9 2-2 2h-.11m8.11 0c-1.1 0-2-.9-2-2s.9-2 2-2h.11c1.1 0 2 .9 2 2s-.9 2-2 2h-.11m8.11 0c-1.1 0-2-.9-2-2s.9-2 2-2h.11c1.1 0 2 .9 2 2s-.9 2-2 2h-.11m8.11 0c-1.1 0-2-.9-2-2s.9-2 2-2h.11c1.1 0 2 .9 2 2s-.9 2-2 2h-.11m8.11 0c-1.1 0-2-.9-2-2s.9-2 2-2h.11c1.1 0 2 .9 2 2s-.9 2-2 2h-.11m8.11 0c-1.1 0-2-.9-2-2s.9-2 2-2h.11c1.1 0 2 .9 2 2s-.9 2-2 2h-.11m8.11 0c-1.1 0-2-.9-2-2s.9-2 2-2h.11c1.1 0 2 .9 2 2s-.9 2-2 2h-.11m8.11 0c-1.1 0-2-.9-2-2s.9-2 2-2h.11c1.1 0 2 .9 2 2s-.9 2-2 2h-.11m8.11 0c-1.1 0-2-.9-2-2s.9-2 2-2h.11c1.1 0 2 .9 2 2s-.9 2-2 2h-.11m8.11 0c-1.1 0-2-.9-2-2s.9-2 2-2h.11c1.1 0 2 .9 2 2s-.9 2-2 2h-.11m8.11 0c-1.1 0-2-.9-2-2s.9-2 2-2h.11c1.1 0 2 .9 2 2s-.9 2-2 2h-.11m8.11 0c-1.1 0-2-.9-2-2s.9-2 2-2h.11c1.1 0 2 .9 2 2s-.9 2-2 2h-.11m8.11 0c-1.1 0-2-.9-2-2s.9-2 2-2h.11c1.1 0 2 .9 2 2s-.9 2-2 2h-.11m8.11 0c-1.1 0-2-.9-2-2s.9-2 2-2h.11c1.1 0 2 .9 2 2s-.9 2-2 2h-.11m8.11 0c-1.1 0-2-.9-2-2s.9-2 2-2h.11c1.1 0 2 .9 2 2s-.9 2-2 2h-.11m8.11 0c-1.1 0-2-.9-2-2s.9-2 2-2h.11c1.1 0 2 .9 2 2s-.9 2-2 2h-.11m8.11 0c-1.1 0-2-.9-2-2s.9-2 2-2h.11c1.1 0 2 .9 2 2s-.9 2-2 2h-.11m8.11 0c-1.1 0-2-.9-2-2s.9-2 2-2h.11c1.1 0 2 .9 2 2s-.9 2-2 2h-.11m8.11 0c-1.1 0-2-.9-2-2s.9-2 2-2h.11c1.1 0 2 .9 2 2s-.9 2-2 2h-.11m8.11 0c-1.1 0-2-.9-2-2s.9-2 2-2h.11c1.1 0 2 .9 2 2s-.9 2-2 2h-.11m8.11 0c-1.1 0-2-.9-2-2s.9-2 2-2h.11c1.1 0 2 .9 2 2s-.9 2-2 2h-.11m8.11 0c-1.1 0-2-.9-2-2s.9-2 2-2h.11c1.1 0 2 .9 2 2s-.9 2-2 2h-.11m8.11 0c-1.1 0-2-.9-2-2s.9-2 2-2h.11c1.1 0 2 .9 2 2s-.9 2-2 2h-.11m8.11 0c-1.1 0-2-.9-2-2s.9-2 2-2h.11c1.1 0 2 .9 2 2s-.9 2-2 2h-.11m8.11 0c-1.1 0-2-.9-2-2s.9-2 2-2h.11c1.1 0 2 .9 2 2s-.9 2-2 2h-.11m8.11 0c-1.1 0-2-.9-2-2s.9-2 2-2h.11c1.1 0 2 .9 2 2s-.9 2-2 2h-.11m8.11 0c-1.1 0-2-.9-2-2s.9-2 2-2h.11c1.1 0 2 .9 2 2s-.9 2-2 2h-.11m8.11 0c-1.1 0-2-.9-2-2s.9-2 2-2h.11c1.1 0 2 .9 2 2s-.9 2-2 2h-.11m8.11 0c-1.1 0-2-.9-2-2s.9-2 2-2h.11c1.1 0 2 .9 2 2s-.9 2-2 2h-.11m8.11 0c-1.1 0-2-.9-2-2s.9-2 2-2h.11c1.1 0 2 .9 2 2s-.9 2-2 2h-.11m8.11 0c-1.1 0-2-.9-2-2s.9-2 2-2h.11c1.1 0 2 .9 2 2s-.9 2-2 2h-.11m8.11 0c-1.1 0-2-.9-2-2s.9-2 2-2h.11c1.1 0 2 .9 2 2s-.9 2-2 2h-.11m8.11 0c-1.1 0-2-.9-2-2s.9-2 2-2h.11c1.1 0 2 .9 2 2s-.9 2-2 2h-.11m8.11 0c-1.1 0-2-.9-2-2s.9-2 2-2h.11c1.1 0 2 .9 2 2s-.9 2-2 2h-.11m8.11 0c-1.1 0-2-.9-2-2s.9-2 2-2h.11c1.1 0 2 .9 2 2s-.9 2-2 2h-.11m8.11 0c-1.1 0-2-.9-2-2s.9-2 2-2h.11c1.1 0 2 .9 2 2s-.9 2-2 2h-.11m8.11 0c-1.1 0-2-.9-2-2s.9-2 2-2h.11c1.1 0 2 .9 2 2s-.9 2-2 2h-.11m8.11 0c-1.1 0-2-.9-2-2s.9-2 2-2h.11c1.1 0 2 .9 2 2s-.9 2-2 2h-.11m8.11 0c-1.1 0-2-.9-2-2s.9-2 2-2h.11c1.1 0 2 .9 2 2s-.9 2-2 2h-.11m8.11 0c-1.1 0-2-.9-2-2s.9-2 2-2h.11c1.1 0 2 .9 2 2s-.9 2-2 2h-.11m8.11 0c-1.1 0-2-.9-2-2s.9-2 2-2h.11c1.1 0 2 .9 2 2s-.9 2-2 2h-.11m8.11 0c-1.1 0-2-.9-2-2s.9-2 2-2h.11c1.1 0 2 .9 2 2s-.9 2-2 2h-.11m4.3-11.81c0 1.1-.9 2-2 2s-2-.9-2-2v-.11c0-1.1.9-2 2-2s2 .9 2 2v.11m0-8.11c0 1.1-.9 2-2 2s-2-.9-2-2v-.11c0-1.1.9-2 2-2s2 .9 2 2v.11m0-8.11c0 1.1-.9 2-2 2s-2-.9-2-2v-.11c0-1.1.9-2 2-2s2 .9 2 2v.11m0-8.11c0 1.1-.9 2-2 2s-2-.9-2-2v-.11c0-1.1.9-2 2-2s2 .9 2 2v.11m0-8.11c0 1.1-.9 2-2 2s-2-.9-2-2v-.11c0-1.1.9-2 2-2s2 .9 2 2v.11m0-8.11c0 1.1-.9 2-2 2s-2-.9-2-2v-.11c0-1.1.9-2 2-2s2 .9 2 2v.11m0-8.11c0 1.1-.9 2-2 2s-2-.9-2-2v-.11c0-1.1.9-2 2-2s2 .9 2 2v.11m0-8.11c0 1.1-.9 2-2 2s-2-.9-2-2v-.11c0-1.1.9-2 2-2s2 .9 2 2v.11m0-8.11c0 1.1-.9 2-2 2s-2-.9-2-2v-.11c0-1.1.9-2 2-2s2 .9 2 2v.11m0-8.11c0 1.1-.9 2-2 2s-2-.9-2-2v-.11c0-1.1.9-2 2-2s2 .9 2 2v.11m0-8.11c0 1.1-.9 2-2 2s-2-.9-2-2v-.11c0-1.1.9-2 2-2s2 .9 2 2v.11m0-8.11c0 1.1-.9 2-2 2s-2-.9-2-2v-.11c0-1.1.9-2 2-2s2 .9 2 2v.11m0-8.11c0 1.1-.9 2-2 2s-2-.9-2-2v-.11c0-1.1.9-2 2-2s2 .9 2 2v.11m0-8.11c0 1.1-.9 2-2 2s-2-.9-2-2v-.11c0-1.1.9-2 2-2s2 .9 2 2v.11m0-8.11c0 1.1-.9 2-2 2s-2-.9-2-2v-.11c0-1.1.9-2 2-2s2 .9 2 2v.11m0-8.11c0 1.1-.9 2-2 2s-2-.9-2-2v-.11c0-1.1.9-2 2-2s2 .9 2 2v.11m0-8.11c0 1.1-.9 2-2 2s-2-.9-2-2v-.11c0-1.1.9-2 2-2s2 .9 2 2v.11m0-8.11c0 1.1-.9 2-2 2s-2-.9-2-2v-.11c0-1.1.9-2 2-2s2 .9 2 2v.11m0-8.11c0 1.1-.9 2-2 2s-2-.9-2-2v-.11c0-1.1.9-2 2-2s2 .9 2 2v.11m0-8.11c0 1.1-.9 2-2 2s-2-.9-2-2v-.11c0-1.1.9-2 2-2s2 .9 2 2v.11m0-8.11c0 1.1-.9 2-2 2s-2-.9-2-2v-.11c0-1.1.9-2 2-2s2 .9 2 2v.11m0-8.11c0 1.1-.9 2-2 2s-2-.9-2-2v-.11c0-1.1.9-2 2-2s2 .9 2 2v.11m0-8.11c0 1.1-.9 2-2 2s-2-.9-2-2v-.11c0-1.1.9-2 2-2s2 .9 2 2v.11m0-8.11c0 1.1-.9 2-2 2s-2-.9-2-2v-.11c0-1.1.9-2 2-2s2 .9 2 2v.11m0-8.11c0 1.1-.9 2-2 2s-2-.9-2-2v-.11c0-1.1.9-2 2-2s2 .9 2 2v.11m0-8.11c0 1.1-.9 2-2 2s-2-.9-2-2v-.11c0-1.1.9-2 2-2s2 .9 2 2v.11m0-8.11c0 1.1-.9 2-2 2s-2-.9-2-2v-.11c0-1.1.9-2 2-2s2 .9 2 2v.11m0-8.11c0 1.1-.9 2-2 2s-2-.9-2-2v-.11c0-1.1.9-2 2-2s2 .9 2 2v.11m0-8.11c0 1.1-.9 2-2 2s-2-.9-2-2V317c0-1.1.9-2 2-2s2 .9 2 2v.11m0-8.11c0 1.1-.9 2-2 2s-2-.9-2-2v-.11c0-1.1.9-2 2-2s2 .9 2 2v.11m0-8.11c0 1.1-.9 2-2 2s-2-.9-2-2v-.11c0-1.1.9-2 2-2s2 .9 2 2v.11m0-8.11c0 1.1-.9 2-2 2s-2-.9-2-2v-.11c0-1.1.9-2 2-2s2 .9 2 2v.11M949.67 288c1.1 0 2 .9 2 2s-.9 2-2 2h-.11c-1.1 0-2-.9-2-2s.9-2 2-2h.11m-8.11 0c1.1 0 2 .9 2 2s-.9 2-2 2h-.11c-1.1 0-2-.9-2-2s.9-2 2-2h.11m-8.11 0c1.1 0 2 .9 2 2s-.9 2-2 2h-.11c-1.1 0-2-.9-2-2s.9-2 2-2h.11m-8.11 0c1.1 0 2 .9 2 2s-.9 2-2 2h-.11c-1.1 0-2-.9-2-2s.9-2 2-2h.11m-8.11 0c1.1 0 2 .9 2 2s-.9 2-2 2h-.11c-1.1 0-2-.9-2-2s.9-2 2-2h.11m-8.11 0c1.1 0 2 .9 2 2s-.9 2-2 2h-.11c-1.1 0-2-.9-2-2s.9-2 2-2h.11m-8.11 0c1.1 0 2 .9 2 2s-.9 2-2 2h-.11c-1.1 0-2-.9-2-2s.9-2 2-2h.11m-8.11 0c1.1 0 2 .9 2 2s-.9 2-2 2h-.11c-1.1 0-2-.9-2-2s.9-2 2-2h.11m-8.11 0c1.1 0 2 .9 2 2s-.9 2-2 2h-.11c-1.1 0-2-.9-2-2s.9-2 2-2h.11m-8.11 0c1.1 0 2 .9 2 2s-.9 2-2 2h-.11c-1.1 0-2-.9-2-2s.9-2 2-2h.11" fill="#FB8B2D" filter="url(#f)"/></svg>