<?xml version="1.0" encoding="utf-8"?>
<svg xmlns="http://www.w3.org/2000/svg"
	xmlns:xlink="http://www.w3.org/1999/xlink"
	width="961px" height="644px" viewBox="0 0 961 644">
<filter filterUnits="objectBoundingBox" x="0.00" y="0.00" width="100.00" height="100.00" id="filter0">
<feImage x="0" y="0" width="482" height="296" preserveApectRatio="none" xlink:href="#symbol0"/>
<feComposite in="grImage1" in2="SourceAlpha" operator="in" result="grOverlay1"/>
<feBlend in="grOverlay1" in2="SourceGraphic" mode="normal" result="gradientOverlay1"/>
</filter>
<filter filterUnits="objectBoundingBox" x="0.00" y="0.00" width="100.00" height="100.00" id="filter1">
<feImage x="479" y="288" width="482" height="356" preserveApectRatio="none" xlink:href="#symbol1"/>
<feComposite in="grImage1" in2="SourceAlpha" operator="in" result="grOverlay1"/>
<feBlend in="grOverlay1" in2="SourceGraphic" mode="normal" result="gradientOverlay1"/>
</filter>
<linearGradient id="linear_PSgrad_0" x1="50%" y1="100%" x2="50%" y2="0%">
    <stop offset="0%" stop-color="rgb(241,71,65)" stop-opacity="1" />
    <stop offset="100%" stop-color="rgb(251,139,45)" stop-opacity="1" />
</linearGradient>

<linearGradient id="linear_PSgrad_1" x1="50%" y1="100%" x2="50%" y2="0%">
    <stop offset="0%" stop-color="rgb(251,139,45)" stop-opacity="1" />
    <stop offset="100%" stop-color="rgb(241,71,65)" stop-opacity="1" />
</linearGradient>

<defs>
<rect x="0" y="0" width="482" height="296" id="symbol0" fill="url(#linear_PSgrad_0)"/><rect x="0" y="0" width="482" height="356" id="symbol1" fill="url(#linear_PSgrad_1)"/></defs>
<path fillRule="evenodd" d="M 478 2C 478 0.9 478.9-0 480-0 481.1-0 482 0.9 482 2 482 2 482 2.11 482 2.11 482 3.21 481.1 4.11 480 4.11 478.9 4.11 478 3.21 478 2.11 478 2.11 478 2 478 2M 478 10.11C 478 9.01 478.9 8.11 480 8.11 481.1 8.11 482 9.01 482 10.11 482 10.11 482 10.22 482 10.22 482 11.32 481.1 12.22 480 12.22 478.9 12.22 478 11.32 478 10.22 478 10.22 478 10.11 478 10.11M 478 18.22C 478 17.12 478.9 16.22 480 16.22 481.1 16.22 482 17.12 482 18.22 482 18.22 482 18.33 482 18.33 482 19.43 481.1 20.33 480 20.33 478.9 20.33 478 19.43 478 18.33 478 18.33 478 18.22 478 18.22M 478 26.33C 478 25.23 478.9 24.33 480 24.33 481.1 24.33 482 25.23 482 26.33 482 26.33 482 26.44 482 26.44 482 27.54 481.1 28.44 480 28.44 478.9 28.44 478 27.54 478 26.44 478 26.44 478 26.33 478 26.33M 479.56 28C 480.66 28 481.56 28.9 481.56 30 481.56 31.1 480.66 32 479.56 32 479.56 32 479.45 32 479.45 32 478.35 32 477.45 31.1 477.45 30 477.45 28.9 478.35 28 479.45 28 479.45 28 479.56 28 479.56 28M 471.45 28C 472.55 28 473.45 28.9 473.45 30 473.45 31.1 472.55 32 471.45 32 471.45 32 471.34 32 471.34 32 470.24 32 469.34 31.1 469.34 30 469.34 28.9 470.24 28 471.34 28 471.34 28 471.45 28 471.45 28M 463.34 28C 464.44 28 465.34 28.9 465.34 30 465.34 31.1 464.44 32 463.34 32 463.34 32 463.23 32 463.23 32 462.13 32 461.23 31.1 461.23 30 461.23 28.9 462.13 28 463.23 28 463.23 28 463.34 28 463.34 28M 455.23 28C 456.33 28 457.23 28.9 457.23 30 457.23 31.1 456.33 32 455.23 32 455.23 32 455.12 32 455.12 32 454.02 32 453.12 31.1 453.12 30 453.12 28.9 454.02 28 455.12 28 455.12 28 455.23 28 455.23 28M 447.12 28C 448.22 28 449.12 28.9 449.12 30 449.12 31.1 448.22 32 447.12 32 447.12 32 447.01 32 447.01 32 445.91 32 445.01 31.1 445.01 30 445.01 28.9 445.91 28 447.01 28 447.01 28 447.12 28 447.12 28M 439.01 28C 440.11 28 441.01 28.9 441.01 30 441.01 31.1 440.11 32 439.01 32 439.01 32 438.9 32 438.9 32 437.8 32 436.9 31.1 436.9 30 436.9 28.9 437.8 28 438.9 28 438.9 28 439.01 28 439.01 28M 430.9 28C 432 28 432.9 28.9 432.9 30 432.9 31.1 432 32 430.9 32 430.9 32 430.79 32 430.79 32 429.69 32 428.79 31.1 428.79 30 428.79 28.9 429.69 28 430.79 28 430.79 28 430.9 28 430.9 28M 422.79 28C 423.89 28 424.79 28.9 424.79 30 424.79 31.1 423.89 32 422.79 32 422.79 32 422.68 32 422.68 32 421.58 32 420.68 31.1 420.68 30 420.68 28.9 421.58 28 422.68 28 422.68 28 422.79 28 422.79 28M 414.68 28C 415.78 28 416.68 28.9 416.68 30 416.68 31.1 415.78 32 414.68 32 414.68 32 414.57 32 414.57 32 413.47 32 412.57 31.1 412.57 30 412.57 28.9 413.47 28 414.57 28 414.57 28 414.68 28 414.68 28M 406.57 28C 407.67 28 408.57 28.9 408.57 30 408.57 31.1 407.67 32 406.57 32 406.57 32 406.46 32 406.46 32 405.36 32 404.46 31.1 404.46 30 404.46 28.9 405.36 28 406.46 28 406.46 28 406.57 28 406.57 28M 398.46 28C 399.56 28 400.46 28.9 400.46 30 400.46 31.1 399.56 32 398.46 32 398.46 32 398.35 32 398.35 32 397.25 32 396.35 31.1 396.35 30 396.35 28.9 397.25 28 398.35 28 398.35 28 398.46 28 398.46 28M 390.35 28C 391.45 28 392.35 28.9 392.35 30 392.35 31.1 391.45 32 390.35 32 390.35 32 390.24 32 390.24 32 389.14 32 388.24 31.1 388.24 30 388.24 28.9 389.14 28 390.24 28 390.24 28 390.35 28 390.35 28M 382.24 28C 383.34 28 384.24 28.9 384.24 30 384.24 31.1 383.34 32 382.24 32 382.24 32 382.13 32 382.13 32 381.03 32 380.13 31.1 380.13 30 380.13 28.9 381.03 28 382.13 28 382.13 28 382.24 28 382.24 28M 374.13 28C 375.23 28 376.13 28.9 376.13 30 376.13 31.1 375.23 32 374.13 32 374.13 32 374.02 32 374.02 32 372.92 32 372.02 31.1 372.02 30 372.02 28.9 372.92 28 374.02 28 374.02 28 374.13 28 374.13 28M 366.02 28C 367.12 28 368.02 28.9 368.02 30 368.02 31.1 367.12 32 366.02 32 366.02 32 365.91 32 365.91 32 364.81 32 363.91 31.1 363.91 30 363.91 28.9 364.81 28 365.91 28 365.91 28 366.02 28 366.02 28M 357.91 28C 359.01 28 359.91 28.9 359.91 30 359.91 31.1 359.01 32 357.91 32 357.91 32 357.8 32 357.8 32 356.7 32 355.8 31.1 355.8 30 355.8 28.9 356.7 28 357.8 28 357.8 28 357.91 28 357.91 28M 349.8 28C 350.9 28 351.8 28.9 351.8 30 351.8 31.1 350.9 32 349.8 32 349.8 32 349.69 32 349.69 32 348.59 32 347.69 31.1 347.69 30 347.69 28.9 348.59 28 349.69 28 349.69 28 349.8 28 349.8 28M 341.69 28C 342.79 28 343.69 28.9 343.69 30 343.69 31.1 342.79 32 341.69 32 341.69 32 341.58 32 341.58 32 340.48 32 339.58 31.1 339.58 30 339.58 28.9 340.48 28 341.58 28 341.58 28 341.69 28 341.69 28M 333.58 28C 334.68 28 335.58 28.9 335.58 30 335.58 31.1 334.68 32 333.58 32 333.58 32 333.47 32 333.47 32 332.37 32 331.47 31.1 331.47 30 331.47 28.9 332.37 28 333.47 28 333.47 28 333.58 28 333.58 28M 325.47 28C 326.57 28 327.47 28.9 327.47 30 327.47 31.1 326.57 32 325.47 32 325.47 32 325.36 32 325.36 32 324.26 32 323.36 31.1 323.36 30 323.36 28.9 324.26 28 325.36 28 325.36 28 325.47 28 325.47 28M 317.36 28C 318.46 28 319.36 28.9 319.36 30 319.36 31.1 318.46 32 317.36 32 317.36 32 317.25 32 317.25 32 316.15 32 315.25 31.1 315.25 30 315.25 28.9 316.15 28 317.25 28 317.25 28 317.36 28 317.36 28M 309.25 28C 310.35 28 311.25 28.9 311.25 30 311.25 31.1 310.35 32 309.25 32 309.25 32 309.14 32 309.14 32 308.04 32 307.14 31.1 307.14 30 307.14 28.9 308.04 28 309.14 28 309.14 28 309.25 28 309.25 28M 301.14 28C 302.24 28 303.14 28.9 303.14 30 303.14 31.1 302.24 32 301.14 32 301.14 32 301.03 32 301.03 32 299.93 32 299.03 31.1 299.03 30 299.03 28.9 299.93 28 301.03 28 301.03 28 301.14 28 301.14 28M 293.03 28C 294.13 28 295.03 28.9 295.03 30 295.03 31.1 294.13 32 293.03 32 293.03 32 292.92 32 292.92 32 291.82 32 290.92 31.1 290.92 30 290.92 28.9 291.82 28 292.92 28 292.92 28 293.03 28 293.03 28M 284.92 28C 286.02 28 286.92 28.9 286.92 30 286.92 31.1 286.02 32 284.92 32 284.92 32 284.81 32 284.81 32 283.71 32 282.81 31.1 282.81 30 282.81 28.9 283.71 28 284.81 28 284.81 28 284.92 28 284.92 28M 276.81 28C 277.91 28 278.81 28.9 278.81 30 278.81 31.1 277.91 32 276.81 32 276.81 32 276.7 32 276.7 32 275.6 32 274.7 31.1 274.7 30 274.7 28.9 275.6 28 276.7 28 276.7 28 276.81 28 276.81 28M 268.7 28C 269.8 28 270.7 28.9 270.7 30 270.7 31.1 269.8 32 268.7 32 268.7 32 268.59 32 268.59 32 267.49 32 266.59 31.1 266.59 30 266.59 28.9 267.49 28 268.59 28 268.59 28 268.7 28 268.7 28M 260.59 28C 261.69 28 262.59 28.9 262.59 30 262.59 31.1 261.69 32 260.59 32 260.59 32 260.48 32 260.48 32 259.38 32 258.48 31.1 258.48 30 258.48 28.9 259.38 28 260.48 28 260.48 28 260.59 28 260.59 28M 252.48 28C 253.58 28 254.48 28.9 254.48 30 254.48 31.1 253.58 32 252.48 32 252.48 32 252.37 32 252.37 32 251.27 32 250.37 31.1 250.37 30 250.37 28.9 251.27 28 252.37 28 252.37 28 252.48 28 252.48 28M 244.37 28C 245.47 28 246.37 28.9 246.37 30 246.37 31.1 245.47 32 244.37 32 244.37 32 244.26 32 244.26 32 243.16 32 242.26 31.1 242.26 30 242.26 28.9 243.16 28 244.26 28 244.26 28 244.37 28 244.37 28M 236.26 28C 237.36 28 238.26 28.9 238.26 30 238.26 31.1 237.36 32 236.26 32 236.26 32 236.15 32 236.15 32 235.05 32 234.15 31.1 234.15 30 234.15 28.9 235.05 28 236.15 28 236.15 28 236.26 28 236.26 28M 228.15 28C 229.25 28 230.15 28.9 230.15 30 230.15 31.1 229.25 32 228.15 32 228.15 32 228.04 32 228.04 32 226.94 32 226.04 31.1 226.04 30 226.04 28.9 226.94 28 228.04 28 228.04 28 228.15 28 228.15 28M 220.04 28C 221.14 28 222.04 28.9 222.04 30 222.04 31.1 221.14 32 220.04 32 220.04 32 219.93 32 219.93 32 218.83 32 217.93 31.1 217.93 30 217.93 28.9 218.83 28 219.93 28 219.93 28 220.04 28 220.04 28M 211.93 28C 213.03 28 213.93 28.9 213.93 30 213.93 31.1 213.03 32 211.93 32 211.93 32 211.82 32 211.82 32 210.72 32 209.82 31.1 209.82 30 209.82 28.9 210.72 28 211.82 28 211.82 28 211.93 28 211.93 28M 203.82 28C 204.92 28 205.82 28.9 205.82 30 205.82 31.1 204.92 32 203.82 32 203.82 32 203.71 32 203.71 32 202.61 32 201.71 31.1 201.71 30 201.71 28.9 202.61 28 203.71 28 203.71 28 203.82 28 203.82 28M 195.71 28C 196.81 28 197.71 28.9 197.71 30 197.71 31.1 196.81 32 195.71 32 195.71 32 195.6 32 195.6 32 194.5 32 193.6 31.1 193.6 30 193.6 28.9 194.5 28 195.6 28 195.6 28 195.71 28 195.71 28M 187.6 28C 188.7 28 189.6 28.9 189.6 30 189.6 31.1 188.7 32 187.6 32 187.6 32 187.49 32 187.49 32 186.39 32 185.49 31.1 185.49 30 185.49 28.9 186.39 28 187.49 28 187.49 28 187.6 28 187.6 28M 179.49 28C 180.59 28 181.49 28.9 181.49 30 181.49 31.1 180.59 32 179.49 32 179.49 32 179.38 32 179.38 32 178.28 32 177.38 31.1 177.38 30 177.38 28.9 178.28 28 179.38 28 179.38 28 179.49 28 179.49 28M 171.38 28C 172.48 28 173.38 28.9 173.38 30 173.38 31.1 172.48 32 171.38 32 171.38 32 171.27 32 171.27 32 170.17 32 169.27 31.1 169.27 30 169.27 28.9 170.17 28 171.27 28 171.27 28 171.38 28 171.38 28M 163.27 28C 164.37 28 165.27 28.9 165.27 30 165.27 31.1 164.37 32 163.27 32 163.27 32 163.16 32 163.16 32 162.06 32 161.16 31.1 161.16 30 161.16 28.9 162.06 28 163.16 28 163.16 28 163.27 28 163.27 28M 155.16 28C 156.26 28 157.16 28.9 157.16 30 157.16 31.1 156.26 32 155.16 32 155.16 32 155.05 32 155.05 32 153.95 32 153.05 31.1 153.05 30 153.05 28.9 153.95 28 155.05 28 155.05 28 155.16 28 155.16 28M 147.05 28C 148.15 28 149.05 28.9 149.05 30 149.05 31.1 148.15 32 147.05 32 147.05 32 146.94 32 146.94 32 145.84 32 144.94 31.1 144.94 30 144.94 28.9 145.84 28 146.94 28 146.94 28 147.05 28 147.05 28M 138.94 28C 140.04 28 140.94 28.9 140.94 30 140.94 31.1 140.04 32 138.94 32 138.94 32 138.83 32 138.83 32 137.73 32 136.83 31.1 136.83 30 136.83 28.9 137.73 28 138.83 28 138.83 28 138.94 28 138.94 28M 130.83 28C 131.93 28 132.83 28.9 132.83 30 132.83 31.1 131.93 32 130.83 32 130.83 32 130.72 32 130.72 32 129.62 32 128.72 31.1 128.72 30 128.72 28.9 129.62 28 130.72 28 130.72 28 130.83 28 130.83 28M 122.72 28C 123.82 28 124.72 28.9 124.72 30 124.72 31.1 123.82 32 122.72 32 122.72 32 122.61 32 122.61 32 121.51 32 120.61 31.1 120.61 30 120.61 28.9 121.51 28 122.61 28 122.61 28 122.72 28 122.72 28M 114.61 28C 115.71 28 116.61 28.9 116.61 30 116.61 31.1 115.71 32 114.61 32 114.61 32 114.5 32 114.5 32 113.4 32 112.5 31.1 112.5 30 112.5 28.9 113.4 28 114.5 28 114.5 28 114.61 28 114.61 28M 106.5 28C 107.6 28 108.5 28.9 108.5 30 108.5 31.1 107.6 32 106.5 32 106.5 32 106.39 32 106.39 32 105.29 32 104.39 31.1 104.39 30 104.39 28.9 105.29 28 106.39 28 106.39 28 106.5 28 106.5 28M 98.39 28C 99.49 28 100.39 28.9 100.39 30 100.39 31.1 99.49 32 98.39 32 98.39 32 98.28 32 98.28 32 97.18 32 96.28 31.1 96.28 30 96.28 28.9 97.18 28 98.28 28 98.28 28 98.39 28 98.39 28M 90.28 28C 91.38 28 92.28 28.9 92.28 30 92.28 31.1 91.38 32 90.28 32 90.28 32 90.17 32 90.17 32 89.07 32 88.17 31.1 88.17 30 88.17 28.9 89.07 28 90.17 28 90.17 28 90.28 28 90.28 28M 82.17 28C 83.27 28 84.17 28.9 84.17 30 84.17 31.1 83.27 32 82.17 32 82.17 32 82.06 32 82.06 32 80.96 32 80.06 31.1 80.06 30 80.06 28.9 80.96 28 82.06 28 82.06 28 82.17 28 82.17 28M 74.06 28C 75.16 28 76.06 28.9 76.06 30 76.06 31.1 75.16 32 74.06 32 74.06 32 73.95 32 73.95 32 72.85 32 71.95 31.1 71.95 30 71.95 28.9 72.85 28 73.95 28 73.95 28 74.06 28 74.06 28M 65.95 28C 67.05 28 67.95 28.9 67.95 30 67.95 31.1 67.05 32 65.95 32 65.95 32 65.84 32 65.84 32 64.74 32 63.84 31.1 63.84 30 63.84 28.9 64.74 28 65.84 28 65.84 28 65.95 28 65.95 28M 57.84 28C 58.94 28 59.84 28.9 59.84 30 59.84 31.1 58.94 32 57.84 32 57.84 32 57.73 32 57.73 32 56.63 32 55.73 31.1 55.73 30 55.73 28.9 56.63 28 57.73 28 57.73 28 57.84 28 57.84 28M 49.73 28C 50.83 28 51.73 28.9 51.73 30 51.73 31.1 50.83 32 49.73 32 49.73 32 49.62 32 49.62 32 48.52 32 47.62 31.1 47.62 30 47.62 28.9 48.52 28 49.62 28 49.62 28 49.73 28 49.73 28M 41.62 28C 42.72 28 43.62 28.9 43.62 30 43.62 31.1 42.72 32 41.62 32 41.62 32 41.51 32 41.51 32 40.41 32 39.51 31.1 39.51 30 39.51 28.9 40.41 28 41.51 28 41.51 28 41.62 28 41.62 28M 33.51 28C 34.61 28 35.51 28.9 35.51 30 35.51 31.1 34.61 32 33.51 32 33.51 32 33.4 32 33.4 32 32.3 32 31.4 31.1 31.4 30 31.4 28.9 32.3 28 33.4 28 33.4 28 33.51 28 33.51 28M 25.4 28C 26.5 28 27.4 28.9 27.4 30 27.4 31.1 26.5 32 25.4 32 25.4 32 25.29 32 25.29 32 24.19 32 23.29 31.1 23.29 30 23.29 28.9 24.19 28 25.29 28 25.29 28 25.4 28 25.4 28M 17.29 28C 18.39 28 19.29 28.9 19.29 30 19.29 31.1 18.39 32 17.29 32 17.29 32 17.18 32 17.18 32 16.08 32 15.18 31.1 15.18 30 15.18 28.9 16.08 28 17.18 28 17.18 28 17.29 28 17.29 28M 9.18 28C 10.28 28 11.18 28.9 11.18 30 11.18 31.1 10.28 32 9.18 32 9.18 32 9.07 32 9.07 32 7.97 32 7.07 31.1 7.07 30 7.07 28.9 7.97 28 9.07 28 9.07 28 9.18 28 9.18 28M 0 34.93C 0 33.83 0.9 32.93 2 32.93 3.1 32.93 4 33.83 4 34.93 4 34.93 4 35.04 4 35.04 4 36.14 3.1 37.04 2 37.04 0.9 37.04 0 36.14 0 35.04 0 35.04 0 34.93 0 34.93M 0 43.04C 0 41.94 0.9 41.04 2 41.04 3.1 41.04 4 41.94 4 43.04 4 43.04 4 43.15 4 43.15 4 44.25 3.1 45.15 2 45.15 0.9 45.15 0 44.25 0 43.15 0 43.15 0 43.04 0 43.04M 0 51.15C 0 50.05 0.9 49.15 2 49.15 3.1 49.15 4 50.05 4 51.15 4 51.15 4 51.26 4 51.26 4 52.36 3.1 53.26 2 53.26 0.9 53.26 0 52.36 0 51.26 0 51.26 0 51.15 0 51.15M 0 59.26C 0 58.16 0.9 57.26 2 57.26 3.1 57.26 4 58.16 4 59.26 4 59.26 4 59.37 4 59.37 4 60.47 3.1 61.37 2 61.37 0.9 61.37 0 60.47 0 59.37 0 59.37 0 59.26 0 59.26M 0 67.37C 0 66.27 0.9 65.37 2 65.37 3.1 65.37 4 66.27 4 67.37 4 67.37 4 67.48 4 67.48 4 68.58 3.1 69.48 2 69.48 0.9 69.48 0 68.58 0 67.48 0 67.48 0 67.37 0 67.37M 0 75.48C 0 74.38 0.9 73.48 2 73.48 3.1 73.48 4 74.38 4 75.48 4 75.48 4 75.59 4 75.59 4 76.69 3.1 77.59 2 77.59 0.9 77.59 0 76.69 0 75.59 0 75.59 0 75.48 0 75.48M 0 83.59C 0 82.49 0.9 81.59 2 81.59 3.1 81.59 4 82.49 4 83.59 4 83.59 4 83.7 4 83.7 4 84.8 3.1 85.7 2 85.7 0.9 85.7 0 84.8 0 83.7 0 83.7 0 83.59 0 83.59M 0 91.7C 0 90.6 0.9 89.7 2 89.7 3.1 89.7 4 90.6 4 91.7 4 91.7 4 91.81 4 91.81 4 92.91 3.1 93.81 2 93.81 0.9 93.81 0 92.91 0 91.81 0 91.81 0 91.7 0 91.7M 0 99.81C 0 98.71 0.9 97.81 2 97.81 3.1 97.81 4 98.71 4 99.81 4 99.81 4 99.92 4 99.92 4 101.02 3.1 101.92 2 101.92 0.9 101.92 0 101.02 0 99.92 0 99.92 0 99.81 0 99.81M 0 107.92C 0 106.82 0.9 105.92 2 105.92 3.1 105.92 4 106.82 4 107.92 4 107.92 4 108.03 4 108.03 4 109.13 3.1 110.03 2 110.03 0.9 110.03 0 109.13 0 108.03 0 108.03 0 107.92 0 107.92M 0 116.03C 0 114.93 0.9 114.03 2 114.03 3.1 114.03 4 114.93 4 116.03 4 116.03 4 116.14 4 116.14 4 117.24 3.1 118.14 2 118.14 0.9 118.14 0 117.24 0 116.14 0 116.14 0 116.03 0 116.03M 0 124.14C 0 123.04 0.9 122.14 2 122.14 3.1 122.14 4 123.04 4 124.14 4 124.14 4 124.25 4 124.25 4 125.35 3.1 126.25 2 126.25 0.9 126.25 0 125.35 0 124.25 0 124.25 0 124.14 0 124.14M 0 132.25C 0 131.15 0.9 130.25 2 130.25 3.1 130.25 4 131.15 4 132.25 4 132.25 4 132.36 4 132.36 4 133.46 3.1 134.36 2 134.36 0.9 134.36 0 133.46 0 132.36 0 132.36 0 132.25 0 132.25M 0 140.36C 0 139.26 0.9 138.36 2 138.36 3.1 138.36 4 139.26 4 140.36 4 140.36 4 140.47 4 140.47 4 141.57 3.1 142.47 2 142.47 0.9 142.47 0 141.57 0 140.47 0 140.47 0 140.36 0 140.36M 0 148.47C 0 147.37 0.9 146.47 2 146.47 3.1 146.47 4 147.37 4 148.47 4 148.47 4 148.58 4 148.58 4 149.68 3.1 150.58 2 150.58 0.9 150.58 0 149.68 0 148.58 0 148.58 0 148.47 0 148.47M 0 156.58C 0 155.48 0.9 154.58 2 154.58 3.1 154.58 4 155.48 4 156.58 4 156.58 4 156.69 4 156.69 4 157.79 3.1 158.69 2 158.69 0.9 158.69 0 157.79 0 156.69 0 156.69 0 156.58 0 156.58M 0 164.69C 0 163.59 0.9 162.69 2 162.69 3.1 162.69 4 163.59 4 164.69 4 164.69 4 164.8 4 164.8 4 165.9 3.1 166.8 2 166.8 0.9 166.8 0 165.9 0 164.8 0 164.8 0 164.69 0 164.69M 0 172.8C 0 171.7 0.9 170.8 2 170.8 3.1 170.8 4 171.7 4 172.8 4 172.8 4 172.91 4 172.91 4 174.01 3.1 174.91 2 174.91 0.9 174.91 0 174.01 0 172.91 0 172.91 0 172.8 0 172.8M 0 180.91C 0 179.81 0.9 178.91 2 178.91 3.1 178.91 4 179.81 4 180.91 4 180.91 4 181.02 4 181.02 4 182.12 3.1 183.02 2 183.02 0.9 183.02 0 182.12 0 181.02 0 181.02 0 180.91 0 180.91M 0 189.02C 0 187.92 0.9 187.02 2 187.02 3.1 187.02 4 187.92 4 189.02 4 189.02 4 189.13 4 189.13 4 190.23 3.1 191.13 2 191.13 0.9 191.13 0 190.23 0 189.13 0 189.13 0 189.02 0 189.02M 0 197.13C 0 196.03 0.9 195.13 2 195.13 3.1 195.13 4 196.03 4 197.13 4 197.13 4 197.24 4 197.24 4 198.34 3.1 199.24 2 199.24 0.9 199.24 0 198.34 0 197.24 0 197.24 0 197.13 0 197.13M 0 205.24C 0 204.14 0.9 203.24 2 203.24 3.1 203.24 4 204.14 4 205.24 4 205.24 4 205.35 4 205.35 4 206.45 3.1 207.35 2 207.35 0.9 207.35 0 206.45 0 205.35 0 205.35 0 205.24 0 205.24M 0 213.35C 0 212.25 0.9 211.35 2 211.35 3.1 211.35 4 212.25 4 213.35 4 213.35 4 213.46 4 213.46 4 214.56 3.1 215.46 2 215.46 0.9 215.46 0 214.56 0 213.46 0 213.46 0 213.35 0 213.35M 0 221.46C 0 220.36 0.9 219.46 2 219.46 3.1 219.46 4 220.36 4 221.46 4 221.46 4 221.57 4 221.57 4 222.67 3.1 223.57 2 223.57 0.9 223.57 0 222.67 0 221.57 0 221.57 0 221.46 0 221.46M 0 229.57C 0 228.47 0.9 227.57 2 227.57 3.1 227.57 4 228.47 4 229.57 4 229.57 4 229.68 4 229.68 4 230.78 3.1 231.68 2 231.68 0.9 231.68 0 230.78 0 229.68 0 229.68 0 229.57 0 229.57M 0 237.68C 0 236.58 0.9 235.68 2 235.68 3.1 235.68 4 236.58 4 237.68 4 237.68 4 237.79 4 237.79 4 238.89 3.1 239.79 2 239.79 0.9 239.79 0 238.89 0 237.79 0 237.79 0 237.68 0 237.68M 0 245.79C 0 244.69 0.9 243.79 2 243.79 3.1 243.79 4 244.69 4 245.79 4 245.79 4 245.9 4 245.9 4 247 3.1 247.9 2 247.9 0.9 247.9 0 247 0 245.9 0 245.9 0 245.79 0 245.79M 0 253.9C 0 252.8 0.9 251.9 2 251.9 3.1 251.9 4 252.8 4 253.9 4 253.9 4 254.01 4 254.01 4 255.11 3.1 256.01 2 256.01 0.9 256.01 0 255.11 0 254.01 0 254.01 0 253.9 0 253.9M 0 262.01C 0 260.91 0.9 260.01 2 260.01 3.1 260.01 4 260.91 4 262.01 4 262.01 4 262.12 4 262.12 4 263.22 3.1 264.12 2 264.12 0.9 264.12 0 263.22 0 262.12 0 262.12 0 262.01 0 262.01M 0 270.12C 0 269.02 0.9 268.12 2 268.12 3.1 268.12 4 269.02 4 270.12 4 270.12 4 270.23 4 270.23 4 271.33 3.1 272.23 2 272.23 0.9 272.23 0 271.33 0 270.23 0 270.23 0 270.12 0 270.12M 0 278.23C 0 277.13 0.9 276.23 2 276.23 3.1 276.23 4 277.13 4 278.23 4 278.23 4 278.34 4 278.34 4 279.44 3.1 280.34 2 280.34 0.9 280.34 0 279.44 0 278.34 0 278.34 0 278.23 0 278.23M 0 286.34C 0 285.24 0.9 284.34 2 284.34 3.1 284.34 4 285.24 4 286.34 4 286.34 4 286.45 4 286.45 4 287.55 3.1 288.45 2 288.45 0.9 288.45 0 287.55 0 286.45 0 286.45 0 286.34 0 286.34M 6.45 296C 5.35 296 4.45 295.1 4.45 294 4.45 292.9 5.35 292 6.45 292 6.45 292 6.56 292 6.56 292 7.66 292 8.56 292.9 8.56 294 8.56 295.1 7.66 296 6.56 296 6.56 296 6.45 296 6.45 296M 14.56 296C 13.46 296 12.56 295.1 12.56 294 12.56 292.9 13.46 292 14.56 292 14.56 292 14.67 292 14.67 292 15.77 292 16.67 292.9 16.67 294 16.67 295.1 15.77 296 14.67 296 14.67 296 14.56 296 14.56 296M 22.67 296C 21.57 296 20.67 295.1 20.67 294 20.67 292.9 21.57 292 22.67 292 22.67 292 22.78 292 22.78 292 23.88 292 24.78 292.9 24.78 294 24.78 295.1 23.88 296 22.78 296 22.78 296 22.67 296 22.67 296M 30.78 296C 29.68 296 28.78 295.1 28.78 294 28.78 292.9 29.68 292 30.78 292 30.78 292 30.89 292 30.89 292 31.99 292 32.89 292.9 32.89 294 32.89 295.1 31.99 296 30.89 296 30.89 296 30.78 296 30.78 296M 38.89 296C 37.79 296 36.89 295.1 36.89 294 36.89 292.9 37.79 292 38.89 292 38.89 292 39 292 39 292 40.1 292 41 292.9 41 294 41 295.1 40.1 296 39 296 39 296 38.89 296 38.89 296M 47 296C 45.9 296 45 295.1 45 294 45 292.9 45.9 292 47 292 47 292 47.11 292 47.11 292 48.21 292 49.11 292.9 49.11 294 49.11 295.1 48.21 296 47.11 296 47.11 296 47 296 47 296M 55.11 296C 54.01 296 53.11 295.1 53.11 294 53.11 292.9 54.01 292 55.11 292 55.11 292 55.22 292 55.22 292 56.32 292 57.22 292.9 57.22 294 57.22 295.1 56.32 296 55.22 296 55.22 296 55.11 296 55.11 296M 63.22 296C 62.12 296 61.22 295.1 61.22 294 61.22 292.9 62.12 292 63.22 292 63.22 292 63.33 292 63.33 292 64.43 292 65.33 292.9 65.33 294 65.33 295.1 64.43 296 63.33 296 63.33 296 63.22 296 63.22 296M 71.33 296C 70.23 296 69.33 295.1 69.33 294 69.33 292.9 70.23 292 71.33 292 71.33 292 71.44 292 71.44 292 72.54 292 73.44 292.9 73.44 294 73.44 295.1 72.54 296 71.44 296 71.44 296 71.33 296 71.33 296M 79.44 296C 78.34 296 77.44 295.1 77.44 294 77.44 292.9 78.34 292 79.44 292 79.44 292 79.55 292 79.55 292 80.65 292 81.55 292.9 81.55 294 81.55 295.1 80.65 296 79.55 296 79.55 296 79.44 296 79.44 296" fill="rgb(251,139,45)" filter="url(#filter0)"/><path fillRule="evenodd" d="M 483 642C 483 643.1 482.1 644 481 644 479.9 644 479 643.1 479 642 479 642 479 641.89 479 641.89 479 640.79 479.9 639.89 481 639.89 482.1 639.89 483 640.79 483 641.89 483 641.89 483 642 483 642M 483 633.89C 483 634.99 482.1 635.89 481 635.89 479.9 635.89 479 634.99 479 633.89 479 633.89 479 633.78 479 633.78 479 632.68 479.9 631.78 481 631.78 482.1 631.78 483 632.68 483 633.78 483 633.78 483 633.89 483 633.89M 483 625.78C 483 626.88 482.1 627.78 481 627.78 479.9 627.78 479 626.88 479 625.78 479 625.78 479 625.67 479 625.67 479 624.57 479.9 623.67 481 623.67 482.1 623.67 483 624.57 483 625.67 483 625.67 483 625.78 483 625.78M 483 617.67C 483 618.77 482.1 619.67 481 619.67 479.9 619.67 479 618.77 479 617.67 479 617.67 479 617.56 479 617.56 479 616.46 479.9 615.56 481 615.56 482.1 615.56 483 616.46 483 617.56 483 617.56 483 617.67 483 617.67M 483 609.56C 483 610.66 482.1 611.56 481 611.56 479.9 611.56 479 610.66 479 609.56 479 609.56 479 609.45 479 609.45 479 608.35 479.9 607.45 481 607.45 482.1 607.45 483 608.35 483 609.45 483 609.45 483 609.56 483 609.56M 483 601.45C 483 602.55 482.1 603.45 481 603.45 479.9 603.45 479 602.55 479 601.45 479 601.45 479 601.34 479 601.34 479 600.24 479.9 599.34 481 599.34 482.1 599.34 483 600.24 483 601.34 483 601.34 483 601.45 483 601.45M 483 593.34C 483 594.44 482.1 595.34 481 595.34 479.9 595.34 479 594.44 479 593.34 479 593.34 479 593.23 479 593.23 479 592.13 479.9 591.23 481 591.23 482.1 591.23 483 592.13 483 593.23 483 593.23 483 593.34 483 593.34M 483 585.23C 483 586.33 482.1 587.23 481 587.23 479.9 587.23 479 586.33 479 585.23 479 585.23 479 585.12 479 585.12 479 584.02 479.9 583.12 481 583.12 482.1 583.12 483 584.02 483 585.12 483 585.12 483 585.23 483 585.23M 483 577.12C 483 578.22 482.1 579.12 481 579.12 479.9 579.12 479 578.22 479 577.12 479 577.12 479 577.01 479 577.01 479 575.91 479.9 575.01 481 575.01 482.1 575.01 483 575.91 483 577.01 483 577.01 483 577.12 483 577.12M 483 569.01C 483 570.11 482.1 571.01 481 571.01 479.9 571.01 479 570.11 479 569.01 479 569.01 479 568.9 479 568.9 479 567.8 479.9 566.9 481 566.9 482.1 566.9 483 567.8 483 568.9 483 568.9 483 569.01 483 569.01M 483 560.9C 483 562 482.1 562.9 481 562.9 479.9 562.9 479 562 479 560.9 479 560.9 479 560.79 479 560.79 479 559.69 479.9 558.79 481 558.79 482.1 558.79 483 559.69 483 560.79 483 560.79 483 560.9 483 560.9M 483 552.79C 483 553.89 482.1 554.79 481 554.79 479.9 554.79 479 553.89 479 552.79 479 552.79 479 552.68 479 552.68 479 551.58 479.9 550.68 481 550.68 482.1 550.68 483 551.58 483 552.68 483 552.68 483 552.79 483 552.79M 486.32 556C 485.22 556 484.32 555.1 484.32 554 484.32 552.9 485.22 552 486.32 552 486.32 552 486.43 552 486.43 552 487.53 552 488.43 552.9 488.43 554 488.43 555.1 487.53 556 486.43 556 486.43 556 486.32 556 486.32 556M 494.43 556C 493.33 556 492.43 555.1 492.43 554 492.43 552.9 493.33 552 494.43 552 494.43 552 494.54 552 494.54 552 495.64 552 496.54 552.9 496.54 554 496.54 555.1 495.64 556 494.54 556 494.54 556 494.43 556 494.43 556M 502.54 556C 501.44 556 500.54 555.1 500.54 554 500.54 552.9 501.44 552 502.54 552 502.54 552 502.65 552 502.65 552 503.75 552 504.65 552.9 504.65 554 504.65 555.1 503.75 556 502.65 556 502.65 556 502.54 556 502.54 556M 510.65 556C 509.55 556 508.65 555.1 508.65 554 508.65 552.9 509.55 552 510.65 552 510.65 552 510.76 552 510.76 552 511.86 552 512.76 552.9 512.76 554 512.76 555.1 511.86 556 510.76 556 510.76 556 510.65 556 510.65 556M 518.76 556C 517.66 556 516.76 555.1 516.76 554 516.76 552.9 517.66 552 518.76 552 518.76 552 518.87 552 518.87 552 519.97 552 520.87 552.9 520.87 554 520.87 555.1 519.97 556 518.87 556 518.87 556 518.76 556 518.76 556M 526.87 556C 525.77 556 524.87 555.1 524.87 554 524.87 552.9 525.77 552 526.87 552 526.87 552 526.98 552 526.98 552 528.08 552 528.98 552.9 528.98 554 528.98 555.1 528.08 556 526.98 556 526.98 556 526.87 556 526.87 556M 534.98 556C 533.88 556 532.98 555.1 532.98 554 532.98 552.9 533.88 552 534.98 552 534.98 552 535.09 552 535.09 552 536.19 552 537.09 552.9 537.09 554 537.09 555.1 536.19 556 535.09 556 535.09 556 534.98 556 534.98 556M 543.09 556C 541.99 556 541.09 555.1 541.09 554 541.09 552.9 541.99 552 543.09 552 543.09 552 543.2 552 543.2 552 544.3 552 545.2 552.9 545.2 554 545.2 555.1 544.3 556 543.2 556 543.2 556 543.09 556 543.09 556M 551.2 556C 550.1 556 549.2 555.1 549.2 554 549.2 552.9 550.1 552 551.2 552 551.2 552 551.31 552 551.31 552 552.41 552 553.31 552.9 553.31 554 553.31 555.1 552.41 556 551.31 556 551.31 556 551.2 556 551.2 556M 559.31 556C 558.21 556 557.31 555.1 557.31 554 557.31 552.9 558.21 552 559.31 552 559.31 552 559.42 552 559.42 552 560.52 552 561.42 552.9 561.42 554 561.42 555.1 560.52 556 559.42 556 559.42 556 559.31 556 559.31 556M 567.42 556C 566.32 556 565.42 555.1 565.42 554 565.42 552.9 566.32 552 567.42 552 567.42 552 567.53 552 567.53 552 568.63 552 569.53 552.9 569.53 554 569.53 555.1 568.63 556 567.53 556 567.53 556 567.42 556 567.42 556M 575.53 556C 574.43 556 573.53 555.1 573.53 554 573.53 552.9 574.43 552 575.53 552 575.53 552 575.64 552 575.64 552 576.74 552 577.64 552.9 577.64 554 577.64 555.1 576.74 556 575.64 556 575.64 556 575.53 556 575.53 556M 583.64 556C 582.54 556 581.64 555.1 581.64 554 581.64 552.9 582.54 552 583.64 552 583.64 552 583.75 552 583.75 552 584.85 552 585.75 552.9 585.75 554 585.75 555.1 584.85 556 583.75 556 583.75 556 583.64 556 583.64 556M 591.75 556C 590.65 556 589.75 555.1 589.75 554 589.75 552.9 590.65 552 591.75 552 591.75 552 591.86 552 591.86 552 592.96 552 593.86 552.9 593.86 554 593.86 555.1 592.96 556 591.86 556 591.86 556 591.75 556 591.75 556M 599.86 556C 598.76 556 597.86 555.1 597.86 554 597.86 552.9 598.76 552 599.86 552 599.86 552 599.97 552 599.97 552 601.07 552 601.97 552.9 601.97 554 601.97 555.1 601.07 556 599.97 556 599.97 556 599.86 556 599.86 556M 607.97 556C 606.87 556 605.97 555.1 605.97 554 605.97 552.9 606.87 552 607.97 552 607.97 552 608.08 552 608.08 552 609.18 552 610.08 552.9 610.08 554 610.08 555.1 609.18 556 608.08 556 608.08 556 607.97 556 607.97 556M 616.08 556C 614.98 556 614.08 555.1 614.08 554 614.08 552.9 614.98 552 616.08 552 616.08 552 616.19 552 616.19 552 617.29 552 618.19 552.9 618.19 554 618.19 555.1 617.29 556 616.19 556 616.19 556 616.08 556 616.08 556M 624.19 556C 623.09 556 622.19 555.1 622.19 554 622.19 552.9 623.09 552 624.19 552 624.19 552 624.3 552 624.3 552 625.4 552 626.3 552.9 626.3 554 626.3 555.1 625.4 556 624.3 556 624.3 556 624.19 556 624.19 556M 632.3 556C 631.2 556 630.3 555.1 630.3 554 630.3 552.9 631.2 552 632.3 552 632.3 552 632.41 552 632.41 552 633.51 552 634.41 552.9 634.41 554 634.41 555.1 633.51 556 632.41 556 632.41 556 632.3 556 632.3 556M 640.41 556C 639.31 556 638.41 555.1 638.41 554 638.41 552.9 639.31 552 640.41 552 640.41 552 640.52 552 640.52 552 641.62 552 642.52 552.9 642.52 554 642.52 555.1 641.62 556 640.52 556 640.52 556 640.41 556 640.41 556M 648.52 556C 647.42 556 646.52 555.1 646.52 554 646.52 552.9 647.42 552 648.52 552 648.52 552 648.63 552 648.63 552 649.73 552 650.63 552.9 650.63 554 650.63 555.1 649.73 556 648.63 556 648.63 556 648.52 556 648.52 556M 656.63 556C 655.53 556 654.63 555.1 654.63 554 654.63 552.9 655.53 552 656.63 552 656.63 552 656.74 552 656.74 552 657.84 552 658.74 552.9 658.74 554 658.74 555.1 657.84 556 656.74 556 656.74 556 656.63 556 656.63 556M 664.74 556C 663.64 556 662.74 555.1 662.74 554 662.74 552.9 663.64 552 664.74 552 664.74 552 664.85 552 664.85 552 665.95 552 666.85 552.9 666.85 554 666.85 555.1 665.95 556 664.85 556 664.85 556 664.74 556 664.74 556M 672.85 556C 671.75 556 670.85 555.1 670.85 554 670.85 552.9 671.75 552 672.85 552 672.85 552 672.96 552 672.96 552 674.06 552 674.96 552.9 674.96 554 674.96 555.1 674.06 556 672.96 556 672.96 556 672.85 556 672.85 556M 680.96 556C 679.86 556 678.96 555.1 678.96 554 678.96 552.9 679.86 552 680.96 552 680.96 552 681.07 552 681.07 552 682.17 552 683.07 552.9 683.07 554 683.07 555.1 682.17 556 681.07 556 681.07 556 680.96 556 680.96 556M 689.07 556C 687.97 556 687.07 555.1 687.07 554 687.07 552.9 687.97 552 689.07 552 689.07 552 689.18 552 689.18 552 690.28 552 691.18 552.9 691.18 554 691.18 555.1 690.28 556 689.18 556 689.18 556 689.07 556 689.07 556M 697.18 556C 696.08 556 695.18 555.1 695.18 554 695.18 552.9 696.08 552 697.18 552 697.18 552 697.29 552 697.29 552 698.39 552 699.29 552.9 699.29 554 699.29 555.1 698.39 556 697.29 556 697.29 556 697.18 556 697.18 556M 705.29 556C 704.19 556 703.29 555.1 703.29 554 703.29 552.9 704.19 552 705.29 552 705.29 552 705.4 552 705.4 552 706.5 552 707.4 552.9 707.4 554 707.4 555.1 706.5 556 705.4 556 705.4 556 705.29 556 705.29 556M 713.4 556C 712.3 556 711.4 555.1 711.4 554 711.4 552.9 712.3 552 713.4 552 713.4 552 713.51 552 713.51 552 714.61 552 715.51 552.9 715.51 554 715.51 555.1 714.61 556 713.51 556 713.51 556 713.4 556 713.4 556M 721.51 556C 720.41 556 719.51 555.1 719.51 554 719.51 552.9 720.41 552 721.51 552 721.51 552 721.62 552 721.62 552 722.72 552 723.62 552.9 723.62 554 723.62 555.1 722.72 556 721.62 556 721.62 556 721.51 556 721.51 556M 729.62 556C 728.52 556 727.62 555.1 727.62 554 727.62 552.9 728.52 552 729.62 552 729.62 552 729.73 552 729.73 552 730.83 552 731.73 552.9 731.73 554 731.73 555.1 730.83 556 729.73 556 729.73 556 729.62 556 729.62 556M 737.73 556C 736.63 556 735.73 555.1 735.73 554 735.73 552.9 736.63 552 737.73 552 737.73 552 737.84 552 737.84 552 738.94 552 739.84 552.9 739.84 554 739.84 555.1 738.94 556 737.84 556 737.84 556 737.73 556 737.73 556M 745.84 556C 744.74 556 743.84 555.1 743.84 554 743.84 552.9 744.74 552 745.84 552 745.84 552 745.95 552 745.95 552 747.05 552 747.95 552.9 747.95 554 747.95 555.1 747.05 556 745.95 556 745.95 556 745.84 556 745.84 556M 753.95 556C 752.85 556 751.95 555.1 751.95 554 751.95 552.9 752.85 552 753.95 552 753.95 552 754.06 552 754.06 552 755.16 552 756.06 552.9 756.06 554 756.06 555.1 755.16 556 754.06 556 754.06 556 753.95 556 753.95 556M 762.06 556C 760.96 556 760.06 555.1 760.06 554 760.06 552.9 760.96 552 762.06 552 762.06 552 762.17 552 762.17 552 763.27 552 764.17 552.9 764.17 554 764.17 555.1 763.27 556 762.17 556 762.17 556 762.06 556 762.06 556M 770.17 556C 769.07 556 768.17 555.1 768.17 554 768.17 552.9 769.07 552 770.17 552 770.17 552 770.28 552 770.28 552 771.38 552 772.28 552.9 772.28 554 772.28 555.1 771.38 556 770.28 556 770.28 556 770.17 556 770.17 556M 778.28 556C 777.18 556 776.28 555.1 776.28 554 776.28 552.9 777.18 552 778.28 552 778.28 552 778.39 552 778.39 552 779.49 552 780.39 552.9 780.39 554 780.39 555.1 779.49 556 778.39 556 778.39 556 778.28 556 778.28 556M 786.39 556C 785.29 556 784.39 555.1 784.39 554 784.39 552.9 785.29 552 786.39 552 786.39 552 786.5 552 786.5 552 787.6 552 788.5 552.9 788.5 554 788.5 555.1 787.6 556 786.5 556 786.5 556 786.39 556 786.39 556M 794.5 556C 793.4 556 792.5 555.1 792.5 554 792.5 552.9 793.4 552 794.5 552 794.5 552 794.61 552 794.61 552 795.71 552 796.61 552.9 796.61 554 796.61 555.1 795.71 556 794.61 556 794.61 556 794.5 556 794.5 556M 802.61 556C 801.51 556 800.61 555.1 800.61 554 800.61 552.9 801.51 552 802.61 552 802.61 552 802.72 552 802.72 552 803.82 552 804.72 552.9 804.72 554 804.72 555.1 803.82 556 802.72 556 802.72 556 802.61 556 802.61 556M 810.72 556C 809.62 556 808.72 555.1 808.72 554 808.72 552.9 809.62 552 810.72 552 810.72 552 810.83 552 810.83 552 811.93 552 812.83 552.9 812.83 554 812.83 555.1 811.93 556 810.83 556 810.83 556 810.72 556 810.72 556M 818.83 556C 817.73 556 816.83 555.1 816.83 554 816.83 552.9 817.73 552 818.83 552 818.83 552 818.94 552 818.94 552 820.04 552 820.94 552.9 820.94 554 820.94 555.1 820.04 556 818.94 556 818.94 556 818.83 556 818.83 556M 826.94 556C 825.84 556 824.94 555.1 824.94 554 824.94 552.9 825.84 552 826.94 552 826.94 552 827.05 552 827.05 552 828.15 552 829.05 552.9 829.05 554 829.05 555.1 828.15 556 827.05 556 827.05 556 826.94 556 826.94 556M 835.05 556C 833.95 556 833.05 555.1 833.05 554 833.05 552.9 833.95 552 835.05 552 835.05 552 835.16 552 835.16 552 836.26 552 837.16 552.9 837.16 554 837.16 555.1 836.26 556 835.16 556 835.16 556 835.05 556 835.05 556M 843.16 556C 842.06 556 841.16 555.1 841.16 554 841.16 552.9 842.06 552 843.16 552 843.16 552 843.27 552 843.27 552 844.37 552 845.27 552.9 845.27 554 845.27 555.1 844.37 556 843.27 556 843.27 556 843.16 556 843.16 556M 851.27 556C 850.17 556 849.27 555.1 849.27 554 849.27 552.9 850.17 552 851.27 552 851.27 552 851.38 552 851.38 552 852.48 552 853.38 552.9 853.38 554 853.38 555.1 852.48 556 851.38 556 851.38 556 851.27 556 851.27 556M 859.38 556C 858.28 556 857.38 555.1 857.38 554 857.38 552.9 858.28 552 859.38 552 859.38 552 859.49 552 859.49 552 860.59 552 861.49 552.9 861.49 554 861.49 555.1 860.59 556 859.49 556 859.49 556 859.38 556 859.38 556M 867.49 556C 866.39 556 865.49 555.1 865.49 554 865.49 552.9 866.39 552 867.49 552 867.49 552 867.6 552 867.6 552 868.7 552 869.6 552.9 869.6 554 869.6 555.1 868.7 556 867.6 556 867.6 556 867.49 556 867.49 556M 875.6 556C 874.5 556 873.6 555.1 873.6 554 873.6 552.9 874.5 552 875.6 552 875.6 552 875.71 552 875.71 552 876.81 552 877.71 552.9 877.71 554 877.71 555.1 876.81 556 875.71 556 875.71 556 875.6 556 875.6 556M 883.71 556C 882.61 556 881.71 555.1 881.71 554 881.71 552.9 882.61 552 883.71 552 883.71 552 883.82 552 883.82 552 884.92 552 885.82 552.9 885.82 554 885.82 555.1 884.92 556 883.82 556 883.82 556 883.71 556 883.71 556M 891.82 556C 890.72 556 889.82 555.1 889.82 554 889.82 552.9 890.72 552 891.82 552 891.82 552 891.93 552 891.93 552 893.03 552 893.93 552.9 893.93 554 893.93 555.1 893.03 556 891.93 556 891.93 556 891.82 556 891.82 556M 899.93 556C 898.83 556 897.93 555.1 897.93 554 897.93 552.9 898.83 552 899.93 552 899.93 552 900.04 552 900.04 552 901.14 552 902.04 552.9 902.04 554 902.04 555.1 901.14 556 900.04 556 900.04 556 899.93 556 899.93 556M 908.04 556C 906.94 556 906.04 555.1 906.04 554 906.04 552.9 906.94 552 908.04 552 908.04 552 908.15 552 908.15 552 909.25 552 910.15 552.9 910.15 554 910.15 555.1 909.25 556 908.15 556 908.15 556 908.04 556 908.04 556M 916.15 556C 915.05 556 914.15 555.1 914.15 554 914.15 552.9 915.05 552 916.15 552 916.15 552 916.26 552 916.26 552 917.36 552 918.26 552.9 918.26 554 918.26 555.1 917.36 556 916.26 556 916.26 556 916.15 556 916.15 556M 924.26 556C 923.16 556 922.26 555.1 922.26 554 922.26 552.9 923.16 552 924.26 552 924.26 552 924.37 552 924.37 552 925.47 552 926.37 552.9 926.37 554 926.37 555.1 925.47 556 924.37 556 924.37 556 924.26 556 924.26 556M 932.37 556C 931.27 556 930.37 555.1 930.37 554 930.37 552.9 931.27 552 932.37 552 932.37 552 932.48 552 932.48 552 933.58 552 934.48 552.9 934.48 554 934.48 555.1 933.58 556 932.48 556 932.48 556 932.37 556 932.37 556M 940.48 556C 939.38 556 938.48 555.1 938.48 554 938.48 552.9 939.38 552 940.48 552 940.48 552 940.59 552 940.59 552 941.69 552 942.59 552.9 942.59 554 942.59 555.1 941.69 556 940.59 556 940.59 556 940.48 556 940.48 556M 948.59 556C 947.49 556 946.59 555.1 946.59 554 946.59 552.9 947.49 552 948.59 552 948.59 552 948.7 552 948.7 552 949.8 552 950.7 552.9 950.7 554 950.7 555.1 949.8 556 948.7 556 948.7 556 948.59 556 948.59 556M 956.7 556C 955.6 556 954.7 555.1 954.7 554 954.7 552.9 955.6 552 956.7 552 956.7 552 956.81 552 956.81 552 957.91 552 958.81 552.9 958.81 554 958.81 555.1 957.91 556 956.81 556 956.81 556 956.7 556 956.7 556M 961 544.19C 961 545.29 960.1 546.19 959 546.19 957.9 546.19 957 545.29 957 544.19 957 544.19 957 544.08 957 544.08 957 542.98 957.9 542.08 959 542.08 960.1 542.08 961 542.98 961 544.08 961 544.08 961 544.19 961 544.19M 961 536.08C 961 537.18 960.1 538.08 959 538.08 957.9 538.08 957 537.18 957 536.08 957 536.08 957 535.97 957 535.97 957 534.87 957.9 533.97 959 533.97 960.1 533.97 961 534.87 961 535.97 961 535.97 961 536.08 961 536.08M 961 527.97C 961 529.07 960.1 529.97 959 529.97 957.9 529.97 957 529.07 957 527.97 957 527.97 957 527.86 957 527.86 957 526.76 957.9 525.86 959 525.86 960.1 525.86 961 526.76 961 527.86 961 527.86 961 527.97 961 527.97M 961 519.86C 961 520.96 960.1 521.86 959 521.86 957.9 521.86 957 520.96 957 519.86 957 519.86 957 519.75 957 519.75 957 518.65 957.9 517.75 959 517.75 960.1 517.75 961 518.65 961 519.75 961 519.75 961 519.86 961 519.86M 961 511.75C 961 512.85 960.1 513.75 959 513.75 957.9 513.75 957 512.85 957 511.75 957 511.75 957 511.64 957 511.64 957 510.54 957.9 509.64 959 509.64 960.1 509.64 961 510.54 961 511.64 961 511.64 961 511.75 961 511.75M 961 503.64C 961 504.74 960.1 505.64 959 505.64 957.9 505.64 957 504.74 957 503.64 957 503.64 957 503.53 957 503.53 957 502.43 957.9 501.53 959 501.53 960.1 501.53 961 502.43 961 503.53 961 503.53 961 503.64 961 503.64M 961 495.53C 961 496.63 960.1 497.53 959 497.53 957.9 497.53 957 496.63 957 495.53 957 495.53 957 495.42 957 495.42 957 494.32 957.9 493.42 959 493.42 960.1 493.42 961 494.32 961 495.42 961 495.42 961 495.53 961 495.53M 961 487.42C 961 488.52 960.1 489.42 959 489.42 957.9 489.42 957 488.52 957 487.42 957 487.42 957 487.31 957 487.31 957 486.21 957.9 485.31 959 485.31 960.1 485.31 961 486.21 961 487.31 961 487.31 961 487.42 961 487.42M 961 479.31C 961 480.41 960.1 481.31 959 481.31 957.9 481.31 957 480.41 957 479.31 957 479.31 957 479.2 957 479.2 957 478.1 957.9 477.2 959 477.2 960.1 477.2 961 478.1 961 479.2 961 479.2 961 479.31 961 479.31M 961 471.2C 961 472.3 960.1 473.2 959 473.2 957.9 473.2 957 472.3 957 471.2 957 471.2 957 471.09 957 471.09 957 469.99 957.9 469.09 959 469.09 960.1 469.09 961 469.99 961 471.09 961 471.09 961 471.2 961 471.2M 961 463.09C 961 464.19 960.1 465.09 959 465.09 957.9 465.09 957 464.19 957 463.09 957 463.09 957 462.98 957 462.98 957 461.88 957.9 460.98 959 460.98 960.1 460.98 961 461.88 961 462.98 961 462.98 961 463.09 961 463.09M 961 454.98C 961 456.08 960.1 456.98 959 456.98 957.9 456.98 957 456.08 957 454.98 957 454.98 957 454.87 957 454.87 957 453.77 957.9 452.87 959 452.87 960.1 452.87 961 453.77 961 454.87 961 454.87 961 454.98 961 454.98M 961 446.87C 961 447.97 960.1 448.87 959 448.87 957.9 448.87 957 447.97 957 446.87 957 446.87 957 446.76 957 446.76 957 445.66 957.9 444.76 959 444.76 960.1 444.76 961 445.66 961 446.76 961 446.76 961 446.87 961 446.87M 961 438.76C 961 439.86 960.1 440.76 959 440.76 957.9 440.76 957 439.86 957 438.76 957 438.76 957 438.65 957 438.65 957 437.55 957.9 436.65 959 436.65 960.1 436.65 961 437.55 961 438.65 961 438.65 961 438.76 961 438.76M 961 430.65C 961 431.75 960.1 432.65 959 432.65 957.9 432.65 957 431.75 957 430.65 957 430.65 957 430.54 957 430.54 957 429.44 957.9 428.54 959 428.54 960.1 428.54 961 429.44 961 430.54 961 430.54 961 430.65 961 430.65M 961 422.54C 961 423.64 960.1 424.54 959 424.54 957.9 424.54 957 423.64 957 422.54 957 422.54 957 422.43 957 422.43 957 421.33 957.9 420.43 959 420.43 960.1 420.43 961 421.33 961 422.43 961 422.43 961 422.54 961 422.54M 961 414.43C 961 415.53 960.1 416.43 959 416.43 957.9 416.43 957 415.53 957 414.43 957 414.43 957 414.32 957 414.32 957 413.22 957.9 412.32 959 412.32 960.1 412.32 961 413.22 961 414.32 961 414.32 961 414.43 961 414.43M 961 406.32C 961 407.42 960.1 408.32 959 408.32 957.9 408.32 957 407.42 957 406.32 957 406.32 957 406.21 957 406.21 957 405.11 957.9 404.21 959 404.21 960.1 404.21 961 405.11 961 406.21 961 406.21 961 406.32 961 406.32M 961 398.21C 961 399.31 960.1 400.21 959 400.21 957.9 400.21 957 399.31 957 398.21 957 398.21 957 398.1 957 398.1 957 397 957.9 396.1 959 396.1 960.1 396.1 961 397 961 398.1 961 398.1 961 398.21 961 398.21M 961 390.1C 961 391.2 960.1 392.1 959 392.1 957.9 392.1 957 391.2 957 390.1 957 390.1 957 389.99 957 389.99 957 388.89 957.9 387.99 959 387.99 960.1 387.99 961 388.89 961 389.99 961 389.99 961 390.1 961 390.1M 961 381.99C 961 383.09 960.1 383.99 959 383.99 957.9 383.99 957 383.09 957 381.99 957 381.99 957 381.88 957 381.88 957 380.78 957.9 379.88 959 379.88 960.1 379.88 961 380.78 961 381.88 961 381.88 961 381.99 961 381.99M 961 373.88C 961 374.98 960.1 375.88 959 375.88 957.9 375.88 957 374.98 957 373.88 957 373.88 957 373.77 957 373.77 957 372.67 957.9 371.77 959 371.77 960.1 371.77 961 372.67 961 373.77 961 373.77 961 373.88 961 373.88M 961 365.77C 961 366.87 960.1 367.77 959 367.77 957.9 367.77 957 366.87 957 365.77 957 365.77 957 365.66 957 365.66 957 364.56 957.9 363.66 959 363.66 960.1 363.66 961 364.56 961 365.66 961 365.66 961 365.77 961 365.77M 961 357.66C 961 358.76 960.1 359.66 959 359.66 957.9 359.66 957 358.76 957 357.66 957 357.66 957 357.55 957 357.55 957 356.45 957.9 355.55 959 355.55 960.1 355.55 961 356.45 961 357.55 961 357.55 961 357.66 961 357.66M 961 349.55C 961 350.65 960.1 351.55 959 351.55 957.9 351.55 957 350.65 957 349.55 957 349.55 957 349.44 957 349.44 957 348.34 957.9 347.44 959 347.44 960.1 347.44 961 348.34 961 349.44 961 349.44 961 349.55 961 349.55M 961 341.44C 961 342.54 960.1 343.44 959 343.44 957.9 343.44 957 342.54 957 341.44 957 341.44 957 341.33 957 341.33 957 340.23 957.9 339.33 959 339.33 960.1 339.33 961 340.23 961 341.33 961 341.33 961 341.44 961 341.44M 961 333.33C 961 334.43 960.1 335.33 959 335.33 957.9 335.33 957 334.43 957 333.33 957 333.33 957 333.22 957 333.22 957 332.12 957.9 331.22 959 331.22 960.1 331.22 961 332.12 961 333.22 961 333.22 961 333.33 961 333.33M 961 325.22C 961 326.32 960.1 327.22 959 327.22 957.9 327.22 957 326.32 957 325.22 957 325.22 957 325.11 957 325.11 957 324.01 957.9 323.11 959 323.11 960.1 323.11 961 324.01 961 325.11 961 325.11 961 325.22 961 325.22M 961 317.11C 961 318.21 960.1 319.11 959 319.11 957.9 319.11 957 318.21 957 317.11 957 317.11 957 317 957 317 957 315.9 957.9 315 959 315 960.1 315 961 315.9 961 317 961 317 961 317.11 961 317.11M 961 309C 961 310.1 960.1 311 959 311 957.9 311 957 310.1 957 309 957 309 957 308.89 957 308.89 957 307.79 957.9 306.89 959 306.89 960.1 306.89 961 307.79 961 308.89 961 308.89 961 309 961 309M 961 300.89C 961 301.99 960.1 302.89 959 302.89 957.9 302.89 957 301.99 957 300.89 957 300.89 957 300.78 957 300.78 957 299.68 957.9 298.78 959 298.78 960.1 298.78 961 299.68 961 300.78 961 300.78 961 300.89 961 300.89M 961 292.78C 961 293.88 960.1 294.78 959 294.78 957.9 294.78 957 293.88 957 292.78 957 292.78 957 292.67 957 292.67 957 291.57 957.9 290.67 959 290.67 960.1 290.67 961 291.57 961 292.67 961 292.67 961 292.78 961 292.78M 949.67 288C 950.77 288 951.67 288.9 951.67 290 951.67 291.1 950.77 292 949.67 292 949.67 292 949.56 292 949.56 292 948.46 292 947.56 291.1 947.56 290 947.56 288.9 948.46 288 949.56 288 949.56 288 949.67 288 949.67 288M 941.56 288C 942.66 288 943.56 288.9 943.56 290 943.56 291.1 942.66 292 941.56 292 941.56 292 941.45 292 941.45 292 940.35 292 939.45 291.1 939.45 290 939.45 288.9 940.35 288 941.45 288 941.45 288 941.56 288 941.56 288M 933.45 288C 934.55 288 935.45 288.9 935.45 290 935.45 291.1 934.55 292 933.45 292 933.45 292 933.34 292 933.34 292 932.24 292 931.34 291.1 931.34 290 931.34 288.9 932.24 288 933.34 288 933.34 288 933.45 288 933.45 288M 925.34 288C 926.44 288 927.34 288.9 927.34 290 927.34 291.1 926.44 292 925.34 292 925.34 292 925.23 292 925.23 292 924.13 292 923.23 291.1 923.23 290 923.23 288.9 924.13 288 925.23 288 925.23 288 925.34 288 925.34 288M 917.23 288C 918.33 288 919.23 288.9 919.23 290 919.23 291.1 918.33 292 917.23 292 917.23 292 917.12 292 917.12 292 916.02 292 915.12 291.1 915.12 290 915.12 288.9 916.02 288 917.12 288 917.12 288 917.23 288 917.23 288M 909.12 288C 910.22 288 911.12 288.9 911.12 290 911.12 291.1 910.22 292 909.12 292 909.12 292 909.01 292 909.01 292 907.91 292 907.01 291.1 907.01 290 907.01 288.9 907.91 288 909.01 288 909.01 288 909.12 288 909.12 288M 901.01 288C 902.11 288 903.01 288.9 903.01 290 903.01 291.1 902.11 292 901.01 292 901.01 292 900.9 292 900.9 292 899.8 292 898.9 291.1 898.9 290 898.9 288.9 899.8 288 900.9 288 900.9 288 901.01 288 901.01 288M 892.9 288C 894 288 894.9 288.9 894.9 290 894.9 291.1 894 292 892.9 292 892.9 292 892.79 292 892.79 292 891.69 292 890.79 291.1 890.79 290 890.79 288.9 891.69 288 892.79 288 892.79 288 892.9 288 892.9 288M 884.79 288C 885.89 288 886.79 288.9 886.79 290 886.79 291.1 885.89 292 884.79 292 884.79 292 884.68 292 884.68 292 883.58 292 882.68 291.1 882.68 290 882.68 288.9 883.58 288 884.68 288 884.68 288 884.79 288 884.79 288M 876.68 288C 877.78 288 878.68 288.9 878.68 290 878.68 291.1 877.78 292 876.68 292 876.68 292 876.57 292 876.57 292 875.47 292 874.57 291.1 874.57 290 874.57 288.9 875.47 288 876.57 288 876.57 288 876.68 288 876.68 288" fill="rgb(251,139,45)" filter="url(#filter1)"/></svg>